HIERARCHY
ROOT Hips
{
    OFFSET 0.000000 0.000000 0.000000
    CHANNELS 6 Xposition Yposition Zposition Zrotation Xrotation Yrotation
    JOINT Spine
    {
        OFFSET -0.000000 8.172037 0.000000
        CHANNELS 3 Zrotation Xrotation Yrotation
        JOINT Spine1
        {
            OFFSET -0.000000 18.392342 0.000000
            CHANNELS 3 Zrotation Xrotation Yrotation
            JOINT Neck
            {
                OFFSET -0.000000 18.316809 1.665164
                CHANNELS 3 Zrotation Xrotation Yrotation
                JOINT Head
                {
                    OFFSET -0.000000 13.952258 -1.993180
                    CHANNELS 3 Zrotation Xrotation Yrotation
                    End Site
                    {
                        OFFSET -0.000000 24.914745 0.000000
                    }
                }
            }
            JOINT LeftShoulder
            {
                OFFSET 4.035833 16.062790 -0.310290
                CHANNELS 3 Zrotation Xrotation Yrotation
                JOINT LeftArm
                {
                    OFFSET 12.395579 0.000000 0.000000
                    CHANNELS 3 Zrotation Xrotation Yrotation
                    JOINT LeftForeArm
                    {
                        OFFSET 26.414022 0.000000 0.000000
                        CHANNELS 3 Zrotation Xrotation Yrotation
                        JOINT LeftHand
                        {
                            OFFSET 28.641636 0.000000 0.000000
                            CHANNELS 3 Zrotation Xrotation Yrotation
                            End Site
                            {
                                OFFSET 14.948848 0.000000 0.000000
                            }
                        }
                    }
                }
            }
            JOINT RightShoulder
            {
                OFFSET -3.919767 16.062790 -0.310290
                CHANNELS 3 Zrotation Xrotation Yrotation
                JOINT RightArm
                {
                    OFFSET -12.395579 0.000000 0.000000
                    CHANNELS 3 Zrotation Xrotation Yrotation
                    JOINT RightForeArm
                    {
                        OFFSET -26.414022 0.000000 0.000000
                        CHANNELS 3 Zrotation Xrotation Yrotation
                        JOINT RightHand
                        {
                            OFFSET -28.641636 0.000000 0.000000
                            CHANNELS 3 Zrotation Xrotation Yrotation
                            End Site
                            {
                                OFFSET -14.948848 0.000000 0.000000
                            }
                        }
                    }
                }
            }
        }
    }
    JOINT LeftUpLeg
    {
        OFFSET 9.965899 0.000000 0.000000
        CHANNELS 3 Zrotation Xrotation Yrotation
        JOINT LeftLeg
        {
            OFFSET -0.000000 -49.671295 0.000000
            CHANNELS 3 Zrotation Xrotation Yrotation
            JOINT LeftFoot
            {
                OFFSET -0.000000 -36.155865 0.000000
                CHANNELS 3 Zrotation Xrotation Yrotation
                JOINT LeftToeBase
                {
                    OFFSET -0.000000 -6.477834 14.948848
                    CHANNELS 3 Zrotation Xrotation Yrotation
                    End Site
                    {
                        OFFSET -0.000000 0.000000 3.986359
                    }
                }
            }
        }
    }
    JOINT RightUpLeg
    {
        OFFSET -9.965899 0.000000 0.000000
        CHANNELS 3 Zrotation Xrotation Yrotation
        JOINT RightLeg
        {
            OFFSET -0.000000 -49.671295 0.000000
            CHANNELS 3 Zrotation Xrotation Yrotation
            JOINT RightFoot
            {
                OFFSET -0.000000 -36.155865 0.000000
                CHANNELS 3 Zrotation Xrotation Yrotation
                JOINT RightToeBase
                {
                    OFFSET -0.000000 -6.477834 14.948848
                    CHANNELS 3 Zrotation Xrotation Yrotation
                    End Site
                    {
                        OFFSET -0.000000 0.000000 3.986359
                    }
                }
            }
        }
    }
}
MOTION
Frames:    14
Frame Time:    0.010000
-6.718090    96.191521    117.916046    -0.505759    -5.461829    177.386795    -3.376005    -7.281640    1.344144    0.668770    0.612628    1.555436    3.466285    13.969350    1.329169    0.056114    -7.686510    1.319842    8.376711    9.802502    8.937925    -70.160469    30.016043    -16.516357    -5.172936    -0.115482    -20.677893    -5.192873    -1.199200    3.074033    -4.791569    8.700073    2.689579    66.809914    19.173742    10.740036    14.911514    7.025483    21.509565    4.541817    4.105834    -2.138372    1.241444    -3.579034    5.568715    -5.768740    5.819192    -2.599108    6.933475    -11.537970    -2.752924    0.000000    0.000000    0.000000    -4.433591    -2.325611    3.343696    8.628931    3.530887    3.234534    -13.764820    -11.936171    -5.013773    0.000000    0.000000    0.000000    
-6.723456    96.200142    117.926598    -0.496699    -5.472113    177.383163    -3.383863    -7.257505    1.346178    0.666419    0.593156    1.557413    3.501195    14.011967    1.317481    0.012336    -7.799171    1.299275    8.377770    9.785364    8.895511    -70.160263    30.018526    -16.489662    -5.115958    -0.041962    -20.650749    -5.257966    -1.115181    3.060005    -4.785512    8.697080    2.657600    66.789543    19.158703    10.776184    14.955020    7.058921    21.534185    4.544770    4.127520    -2.141283    1.245609    -3.585547    5.632611    -5.760931    5.791448    -2.642724    6.931208    -11.476650    -2.776877    0.000000    0.000000    0.000000    -4.442898    -2.300874    3.365180    8.654705    3.440837    3.209263    -14.042315    -11.731395    -4.872334    0.000000    0.000000    0.000000    
-6.730032    96.205681    117.945389    -0.489588    -5.501100    177.379456    -3.406822    -7.256027    1.342759    0.686844    0.583210    1.555363    3.532906    14.069017    1.316910    -0.040201    -7.945928    1.288856    8.378139    9.778587    8.878529    -70.156929    30.074736    -16.517443    -5.056220    -0.026461    -20.585861    -5.295150    -1.087994    3.086569    -4.783178    8.704709    2.634371    66.774796    19.182888    10.822628    14.943367    7.047675    21.569601    4.569999    4.112471    -2.159482    1.256180    -3.624399    5.583888    -5.780104    5.776000    -2.587696    6.983063    -11.431793    -2.831359    0.000000    0.000000    0.000000    -4.439587    -2.303993    3.325201    8.647508    3.376889    3.196422    -14.015588    -11.698340    -4.785112    0.000000    0.000000    0.000000    
-6.731606    96.210388    117.973557    -0.466461    -5.541708    177.367859    -3.411126    -7.246605    1.344649    0.710523    0.561397    1.557248    3.546181    14.082899    1.320334    -0.073053    -8.030978    1.285680    8.368916    9.764254    8.848569    -70.158989    30.067955    -16.518618    -5.050127    -0.016255    -20.554956    -5.278287    -1.078171    3.157893    -4.800909    8.688787    2.635075    66.766594    19.103828    10.830763    15.022185    6.914221    21.584618    4.674973    3.963597    -2.048387    1.289339    -3.680368    5.481114    -5.796841    5.763427    -2.515283    6.998563    -11.421236    -2.784873    0.000000    0.000000    0.000000    -4.421067    -2.334421    3.319614    8.644355    3.332335    3.097851    -13.829463    -11.739909    -4.688551    0.000000    0.000000    0.000000    
-6.734753    96.215317    117.999123    -0.457818    -5.568066    177.369049    -3.422822    -7.225730    1.334467    0.717811    0.541412    1.547292    3.560985    14.083413    1.335585    -0.090259    -8.099731    1.297541    8.376189    9.763073    8.846575    -70.155304    30.139254    -16.545891    -4.996606    -0.039323    -20.521294    -5.295295    -1.091231    3.175480    -4.814456    8.664290    2.642053    66.796936    19.167074    10.813555    14.944959    7.100332    21.681690    4.578984    4.149335    -2.169255    1.306551    -3.713231    5.341114    -5.832164    5.718943    -2.412329    7.033711    -11.375752    -2.794376    0.000000    0.000000    0.000000    -4.366215    -2.376062    3.131199    8.488742    3.365697    2.946756    -13.526573    -11.897035    -4.368844    0.000000    0.000000    0.000000    
-6.737203    96.215714    118.035187    -0.444774    -5.616597    177.372040    -3.423424    -7.201357    1.323409    0.708136    0.494778    1.535856    3.593674    14.117832    1.341211    -0.123872    -8.209246    1.296631    8.398333    9.751180    8.829438    -70.167854    30.132076    -16.538258    -4.998020    -0.020582    -20.501959    -5.286214    -1.071602    3.175392    -4.796789    8.680778    2.625998    66.774040    19.196272    10.865902    14.934953    6.867647    21.728157    4.706316    3.912033    -2.088268    1.322343    -3.794484    5.197949    -5.835820    5.731141    -2.383939    7.087784    -11.363814    -2.728468    0.000000    0.000000    0.000000    -4.364326    -2.382515    3.323992    8.494987    3.202829    2.500942    -13.401046    -11.883410    -4.078285    0.000000    0.000000    0.000000    
-6.738492    96.217522    118.074860    -0.428810    -5.653829    177.373459    -3.425597    -7.165530    1.313142    0.721539    0.452797    1.524850    3.650178    14.154507    1.353972    -0.235556    -8.324354    1.286105    8.384442    9.739626    8.785254    -70.182594    30.144535    -16.507240    -4.932425    -0.029225    -20.508270    -5.344524    -1.072320    3.218779    -4.821851    8.692852    2.629924    66.780586    19.164602    10.890492    14.939180    6.881616    21.785995    4.731341    3.917479    -2.075635    1.338574    -3.867120    5.118839    -5.825760    5.737735    -2.338114    7.075892    -11.359338    -2.736320    0.000000    0.000000    0.000000    -4.366058    -2.409761    3.187693    8.499056    3.167477    2.450702    -13.317295    -11.905384    -3.845742    0.000000    0.000000    0.000000    
-6.735921    96.218369    118.126633    -0.405039    -5.719386    177.386642    -3.428367    -7.159876    1.300433    0.724649    0.432395    1.512236    3.633528    14.165374    1.369468    -0.171430    -8.421830    1.316460    8.414297    9.721815    8.742299    -70.216743    30.178671    -16.497940    -4.880115    -0.073264    -20.513348    -5.346617    -1.107203    3.218322    -4.795166    8.672022    2.626313    66.745903    19.151781    10.902732    14.935675    7.130952    21.859476    4.606763    4.154630    -2.235681    1.369421    -3.993923    5.003661    -5.836992    5.790949    -2.233977    7.103871    -11.383078    -2.729063    0.000000    0.000000    0.000000    -4.360121    -2.476766    3.104513    8.514308    3.143868    2.478741    -13.259063    -11.909956    -3.753504    0.000000    0.000000    0.000000    
-6.732176    96.220695    118.181564    -0.384179    -5.777432    177.397141    -3.447955    -7.146915    1.283001    0.750290    0.419119    1.495657    3.634804    14.172588    1.388046    -0.148476    -8.521775    1.340797    8.426391    9.722860    8.712387    -70.248802    30.141479    -16.508709    -4.862057    -0.069829    -20.533037    -5.322948    -1.102310    3.254478    -4.778190    8.653591    2.644564    66.704170    19.107672    10.900042    14.986629    6.902299    21.935747    4.710346    3.907536    -2.110262    1.400985    -4.106735    4.824201    -5.855082    5.809027    -2.169611    7.166322    -11.358451    -2.665770    0.000000    0.000000    0.000000    -4.351614    -2.558055    3.045057    8.536326    3.165751    2.546448    -13.128704    -11.939507    -3.768516    0.000000    0.000000    0.000000    
-6.730894    96.219543    118.235085    -0.364416    -5.824038    177.405502    -3.456573    -7.100126    1.267660    0.762316    0.366089    1.479730    3.640738    14.192492    1.394827    -0.131097    -8.605094    1.351997    8.449233    9.703007    8.681644    -70.276192    30.130653    -16.478144    -4.885539    -0.086228    -20.578892    -5.245236    -1.124564    3.293065    -4.765971    8.678001    2.641520    66.663284    19.105366    10.941558    14.990441    7.104386    22.024597    4.560126    4.095124    -2.247316    1.419704    -4.208218    4.642262    -5.863943    5.813654    -2.032875    7.174011    -11.357725    -2.615868    0.000000    0.000000    0.000000    -4.354345    -2.625336    3.052812    8.566480    3.158515    2.583632    -13.020142    -11.979720    -3.791525    0.000000    0.000000    0.000000    
-6.729382    96.217278    118.301392    -0.358668    -5.895780    177.429413    -3.488541    -7.073933    1.239282    0.788962    0.321107    1.452782    3.672074    14.216129    1.412035    -0.163959    -8.708763    1.362883    8.460274    9.702903    8.660345    -70.296196    30.164801    -16.510433    -4.859912    -0.145228    -20.579826    -5.180302    -1.176699    3.285947    -4.762908    8.662892    2.676618    66.641830    19.076176    10.931383    15.010937    7.089308    22.097425    4.511443    4.067751    -2.226082    1.425774    -4.374252    4.434144    -5.854203    5.925873    -1.983303    7.205358    -11.413098    -2.495850    0.000000    0.000000    0.000000    -4.347963    -2.735007    2.962298    8.546285    3.171336    2.546739    -12.994115    -11.973424    -3.657311    0.000000    0.000000    0.000000    
-6.725244    96.215866    118.360283    -0.342346    -5.934547    177.467773    -3.512022    -7.026848    1.226303    0.809115    0.288076    1.439965    3.691475    14.228506    1.408840    -0.153912    -8.792410    1.361714    8.496925    9.717225    8.587173    -70.318680    30.242233    -16.551727    -4.778584    -0.209877    -20.597317    -5.181459    -1.226477    3.266844    -4.751087    8.649079    2.662303    66.611305    19.017349    10.920483    15.061143    7.123250    22.172930    4.494897    4.080919    -2.250862    1.441063    -4.496535    4.234383    -5.876252    6.014275    -1.864179    7.282302    -11.462250    -2.410976    0.000000    0.000000    0.000000    -4.281214    -2.686570    2.520132    8.363787    2.934323    2.705874    -12.792269    -11.893360    -3.291391    0.000000    0.000000    0.000000    
-6.722236    96.210953    118.425392    -0.331057    -5.992345    177.509995    -3.533526    -7.008320    1.206597    0.837536    0.278669    1.420985    3.661961    14.266963    1.404696    -0.104251    -8.920860    1.369895    8.497081    9.696562    8.545819    -70.299095    30.234051    -16.598944    -4.792605    -0.199881    -20.601961    -5.188648    -1.219058    3.258051    -4.756111    8.647410    2.669428    66.578461    18.948557    10.908768    15.108297    7.131682    22.280043    4.471635    4.065010    -2.270262    1.452894    -4.665088    4.047045    -5.882302    6.165729    -1.783853    7.317312    -11.523754    -2.293227    0.000000    0.000000    0.000000    -4.273604    -2.771595    2.460694    8.351857    2.937247    2.685595    -12.249486    -12.155293    -3.360407    0.000000    0.000000    0.000000    
-6.711756    96.204857    118.488930    -0.302949    -6.018255    177.542450    -3.553782    -6.947312    1.197873    0.887149    0.262380    1.411631    3.670722    14.304635    1.389719    -0.124468    -9.045362    1.350930    8.476846    9.665476    8.501662    -70.262978    30.305470    -16.638454    -4.757681    -0.221021    -20.626215    -5.153450    -1.233146    3.242154    -4.766635    8.646776    2.638793    66.559410    18.981220    10.937970    15.099246    7.083725    22.353146    4.445675    4.007995    -2.298005    1.482922    -4.785233    3.829711    -5.901031    6.239424    -1.545121    7.343566    -11.572648    -2.330256    0.000000    0.000000    0.000000    -4.252126    -2.828446    2.410155    8.359413    2.954161    2.678904    -12.136888    -12.208155    -3.301831    0.000000    0.000000    0.000000    
